<?xml version="1.0" encoding="UTF-8" standalone="no"?>
<svg xmlns:dc="http://purl.org/dc/elements/1.1/" xmlns:cc="http://creativecommons.org/ns#" xmlns:rdf="http://www.w3.org/1999/02/22-rdf-syntax-ns#" xmlns:svg="http://www.w3.org/2000/svg" xmlns="http://www.w3.org/2000/svg" xmlns:xlink="http://www.w3.org/1999/xlink" xmlns:sodipodi="http://sodipodi.sourceforge.net/DTD/sodipodi-0.dtd" xmlns:inkscape="http://www.inkscape.org/namespaces/inkscape" sodipodi:docname="logo-white.svg" inkscape:version="1.0 (6e3e5246a0, 2020-05-07)" id="svg8" version="1.1" viewBox="0 0 158.75 132.29167" height="500" width="600">
  <defs id="defs2">
    <linearGradient gradientUnits="userSpaceOnUse" y2="14.655897" x2="127.17209" y1="39.672527" x1="97.571632" id="linearGradient3981" xlink:href="#linearGradient3979" inkscape:collect="always" gradientTransform="matrix(0.72857463,0,0,0.72674963,61.783918,16.558023)"/>
    <linearGradient id="linearGradient3979" inkscape:collect="always">
      <stop id="stop3975" offset="0" style="stop-color:#00a800;stop-opacity:1"/>
      <stop id="stop3977" offset="1" style="stop-color:#00e700;stop-opacity:1"/>
    </linearGradient>
    <linearGradient inkscape:collect="always" xlink:href="#linearGradient4067" id="linearGradient4209" gradientUnits="userSpaceOnUse" gradientTransform="matrix(0.72857463,0,0,0.72674963,61.783918,16.558023)" x1="119.32649" y1="30.612976" x2="111.51266" y2="52.602264"/>
    <linearGradient id="linearGradient4067" inkscape:collect="always">
      <stop id="stop4063" offset="0" style="stop-color:#008b00;stop-opacity:1"/>
      <stop id="stop4065" offset="1" style="stop-color:#00cd00;stop-opacity:1"/>
    </linearGradient>
    <linearGradient gradientUnits="userSpaceOnUse" y2="47.327103" x2="132.0775" y1="45.882069" x1="99.569298" id="linearGradient3989" xlink:href="#linearGradient3987" inkscape:collect="always" gradientTransform="matrix(0.72857463,0,0,0.72674963,61.783918,16.558023)"/>
    <linearGradient id="linearGradient3987" inkscape:collect="always">
      <stop id="stop3983" offset="0" style="stop-color:#007f00;stop-opacity:1"/>
      <stop id="stop3985" offset="1" style="stop-color:#00ce00;stop-opacity:1"/>
    </linearGradient>
    <linearGradient gradientUnits="userSpaceOnUse" y2="69.132011" x2="78.020065" y1="47.25848" x1="95.531822" id="linearGradient4069" xlink:href="#linearGradient4067" inkscape:collect="always" gradientTransform="matrix(0.72857463,0,0,0.72674963,61.783918,16.558023)"/>
    <filter style="color-interpolation-filters:sRGB" inkscape:label="Drop Shadow" id="filter3735">
      <feFlood flood-opacity="0.498039" flood-color="rgb(0,0,0)" result="flood" id="feFlood3725"/>
      <feComposite in="flood" in2="SourceGraphic" operator="in" result="composite1" id="feComposite3727"/>
      <feGaussianBlur in="composite1" stdDeviation="0.7" result="blur" id="feGaussianBlur3729"/>
      <feOffset dx="0.2" dy="0.2" result="offset" id="feOffset3731"/>
      <feComposite in="SourceGraphic" in2="offset" operator="over" result="fbSourceGraphic" id="feComposite3733"/>
      <feColorMatrix result="fbSourceGraphicAlpha" in="fbSourceGraphic" values="0 0 0 -1 0 0 0 0 -1 0 0 0 0 -1 0 0 0 0 1 0" id="feColorMatrix3785"/>
      <feFlood id="feFlood3787" flood-opacity="0.498039" flood-color="rgb(0,0,0)" result="flood" in="fbSourceGraphic"/>
      <feComposite in2="fbSourceGraphic" id="feComposite3789" in="flood" operator="in" result="composite1"/>
      <feGaussianBlur id="feGaussianBlur3791" in="composite1" stdDeviation="1" result="blur"/>
      <feOffset id="feOffset3793" dx="0.1" dy="0.5" result="offset"/>
      <feComposite in2="offset" id="feComposite3795" in="fbSourceGraphic" operator="over" result="composite2"/>
    </filter>
    <filter style="color-interpolation-filters:sRGB" inkscape:label="Drop Shadow" id="filter3771">
      <feFlood flood-opacity="0.498039" flood-color="rgb(0,0,0)" result="flood" id="feFlood3761"/>
      <feComposite in="flood" in2="SourceGraphic" operator="in" result="composite1" id="feComposite3763"/>
      <feGaussianBlur in="composite1" stdDeviation="0.7" result="blur" id="feGaussianBlur3765"/>
      <feOffset dx="0" dy="0.2" result="offset" id="feOffset3767"/>
      <feComposite in="SourceGraphic" in2="offset" operator="over" result="composite2" id="feComposite3769"/>
    </filter>
  </defs>
  <sodipodi:namedview inkscape:document-rotation="0" fit-margin-bottom="0" fit-margin-right="0" fit-margin-left="0" fit-margin-top="0" inkscape:lockguides="false" inkscape:guide-bbox="true" showguides="true" inkscape:snap-global="false" inkscape:snap-bbox="false" inkscape:pagecheckerboard="true" inkscape:window-maximized="0" inkscape:window-y="27" inkscape:window-x="2052" inkscape:window-height="914" inkscape:window-width="1717" units="px" showgrid="false" inkscape:current-layer="layer2" inkscape:document-units="px" inkscape:cy="274.73413" inkscape:cx="84.97496" inkscape:zoom="0.99720485" inkscape:pageshadow="2" inkscape:pageopacity="0.0" borderopacity="1.0" bordercolor="#666666" pagecolor="#ffffff" id="base">
    <sodipodi:guide inkscape:locked="false" id="guide848" orientation="1,0" position="28.291635,7.5781169"/>
    <sodipodi:guide inkscape:locked="false" id="guide850" orientation="1,0" position="104.57801,2.2734351"/>
    <sodipodi:guide inkscape:locked="false" id="guide852" orientation="0,1" position="104.3254,12.630195"/>
  </sodipodi:namedview>
  <metadata id="metadata5">
    <rdf:RDF>
      <cc:Work rdf:about="">
        <dc:format>image/svg+xml</dc:format>
        <dc:type rdf:resource="http://purl.org/dc/dcmitype/StillImage"/>
        <dc:title/>
      </cc:Work>
    </rdf:RDF>
  </metadata>
  <g transform="translate(-35.555122,-5.6152164)" inkscape:label="art" id="layer2" inkscape:groupmode="layer">
    <g style="stroke-width:0.727662" transform="matrix(1.372543,0,0,1.3759896,-49.24596,-17.168452)" id="g943">
      <path style="fill:#cccccc;fill-opacity:1;stroke:none;stroke-width:0.192525px;stroke-linecap:butt;stroke-linejoin:miter;stroke-opacity:1" d="M 80.326616,35.552027 V 103.36461 L 64.557523,90.588323 V 35.552027 Z" id="path3475"/>
      <path id="path3473" d="M 126.64833,35.552027 V 103.36461 L 142.41742,90.588323 V 35.552027 Z" style="fill:#cccccc;fill-opacity:1;stroke:none;stroke-width:0.192525px;stroke-linecap:butt;stroke-linejoin:miter;stroke-opacity:1"/>
      <path transform="matrix(0.74499643,0,0,0.74289709,27.227836,21.552589)" id="path3477" d="M 50.107206,18.844383 H 71.273873 L 114.93013,78.375634 H 93.763457 Z" style="fill:#f2f2f2;fill-opacity:1;stroke:none;stroke-width:0.25879px;stroke-linecap:butt;stroke-linejoin:miter;stroke-opacity:1;filter:url(#filter3771)"/>
      <path transform="matrix(0.74499643,0,0,0.74289709,27.227836,21.552589)" id="path3411" d="M 133.45096,18.844383 93.763459,78.375634 V 120.70897 H 114.93013 V 78.375634 l 39.6875,-59.531251 z" style="fill:#f9f9f9;stroke:none;stroke-width:0.25879px;stroke-linecap:butt;stroke-linejoin:miter;stroke-opacity:1;filter:url(#filter3735)"/>
      <rect y="65.634766" x="127.00854" height="5.0156493" width="9.9678392" id="rect3958-5" style="fill:#cccccc;fill-opacity:1;stroke:none;stroke-width:1.92525;stroke-linecap:square;stroke-linejoin:round;stroke-miterlimit:4;stroke-dasharray:none;stroke-opacity:1"/>
      <path style="color:#000000;font-style:normal;font-variant:normal;font-weight:normal;font-stretch:normal;font-size:medium;line-height:normal;font-family:sans-serif;font-variant-ligatures:normal;font-variant-position:normal;font-variant-caps:normal;font-variant-numeric:normal;font-variant-alternates:normal;font-variant-east-asian:normal;font-feature-settings:normal;font-variation-settings:normal;text-indent:0;text-align:start;text-decoration:none;text-decoration-line:none;text-decoration-style:solid;text-decoration-color:#000000;letter-spacing:normal;word-spacing:normal;text-transform:none;writing-mode:lr-tb;direction:ltr;text-orientation:mixed;dominant-baseline:auto;baseline-shift:baseline;text-anchor:start;white-space:normal;shape-padding:0;shape-margin:0;inline-size:0;clip-rule:nonzero;display:inline;overflow:visible;visibility:visible;isolation:auto;mix-blend-mode:normal;color-interpolation:sRGB;color-interpolation-filters:linearRGB;solid-color:#000000;solid-opacity:1;vector-effect:none;fill:url(#linearGradient4069);fill-opacity:1;fill-rule:nonzero;stroke:none;stroke-width:2.8879;stroke-linecap:butt;stroke-linejoin:miter;stroke-miterlimit:4;stroke-dasharray:none;stroke-dashoffset:0;stroke-opacity:1;color-rendering:auto;image-rendering:auto;shape-rendering:auto;text-rendering:auto;enable-background:accumulate;stop-color:#000000" d="m 142.19814,48.04669 c -5.80278,4.6242 -12.39999,8.979538 -16.94867,15.490569 -0.76514,1.095213 -1.61474,2.415119 -2.13314,3.924874 -0.5184,1.509755 -0.68522,3.298865 0.099,4.997143 1.02668,2.223527 3.14203,3.332403 4.93269,4.02354 l 1.06803,-2.749587 c -1.49176,-0.575768 -2.80661,-1.403831 -3.31611,-2.507279 -0.39923,-0.864608 -0.34916,-1.75409 0.0131,-2.809079 0.36225,-1.054989 1.05722,-2.184638 1.76209,-3.193587 4.12846,-5.909527 10.42948,-10.141466 16.36809,-14.873904 z" id="path4057"/>
      <path d="m 174.94112,52.287136 c -1.71821,-2.071844 -3.73633,-3.894077 -5.92195,-5.464543 -5.00969,-3.599659 -11.30288,-6.14745 -17.57459,-5.168296 -4.51279,0.704548 -8.30131,3.891954 -10.30585,7.896857 l -0.011,-0.0013 c 0.002,0.0026 0.005,0.0052 0.008,0.0078 -0.008,0.01685 -0.0177,0.0332 -0.026,0.05006 l 0.0853,0.01021 c 0.39524,0.404585 0.79522,0.804754 1.20149,1.198319 4.27044,4.136874 9.52761,7.898339 15.66344,8.274285 6.33702,0.388266 12.31691,-2.322475 17.71062,-5.36648 l 0.31038,0.03705 c -0.36294,-0.504691 -0.74337,-0.996133 -1.13987,-1.474248 z" style="fill:url(#linearGradient3989);fill-opacity:1;stroke:none;stroke-width:0.192525px;stroke-linecap:butt;stroke-linejoin:miter;stroke-opacity:1" id="path3915-7" inkscape:transform-center-x="11.174241" inkscape:transform-center-y="16.05308"/>
      <path style="color:#000000;font-style:normal;font-variant:normal;font-weight:normal;font-stretch:normal;font-size:medium;line-height:normal;font-family:sans-serif;font-variant-ligatures:normal;font-variant-position:normal;font-variant-caps:normal;font-variant-numeric:normal;font-variant-alternates:normal;font-variant-east-asian:normal;font-feature-settings:normal;font-variation-settings:normal;text-indent:0;text-align:start;text-decoration:none;text-decoration-line:none;text-decoration-style:solid;text-decoration-color:#000000;letter-spacing:normal;word-spacing:normal;text-transform:none;writing-mode:lr-tb;direction:ltr;text-orientation:mixed;dominant-baseline:auto;baseline-shift:baseline;text-anchor:start;white-space:normal;shape-padding:0;shape-margin:0;inline-size:0;clip-rule:nonzero;display:inline;overflow:visible;visibility:visible;isolation:auto;mix-blend-mode:normal;color-interpolation:sRGB;color-interpolation-filters:linearRGB;solid-color:#000000;solid-opacity:1;vector-effect:none;fill:url(#linearGradient4209);fill-opacity:1;fill-rule:nonzero;stroke:none;stroke-width:2.8879;stroke-linecap:butt;stroke-linejoin:miter;stroke-miterlimit:4;stroke-dasharray:none;stroke-dashoffset:0;stroke-opacity:1;color-rendering:auto;image-rendering:auto;shape-rendering:auto;text-rendering:auto;enable-background:accumulate;stop-color:#000000" d="m 141.46478,61.640837 -1.10875,2.73363 c 1.0589,0.427074 2.21364,0.897114 3.01198,1.44952 0.79835,0.552405 1.1594,1.01886 1.19754,1.71795 0.0983,1.802953 -1.55113,3.517386 -3.33067,5.123376 -4.71124,4.251801 -10.79262,7.336766 -15.57945,12.394192 -0.68226,0.720833 -1.4507,1.662776 -1.91632,2.843905 -0.46563,1.181127 -0.54467,2.790667 0.39577,4.090292 1.05304,1.455208 2.57874,2.120228 3.81083,2.621899 l 1.1175,-2.729272 c -1.11965,-0.455893 -2.05598,-0.962266 -2.53037,-1.617835 -0.29287,-0.404717 -0.27977,-0.684397 -0.0422,-1.287012 0.23757,-0.602615 0.78404,-1.33803 1.31393,-1.897873 4.32323,-4.567618 10.31249,-7.628064 15.41356,-12.231682 1.81573,-1.638657 4.48963,-3.989496 4.29974,-7.47105 -0.0985,-1.80575 -1.25515,-3.142951 -2.46489,-3.980011 -1.20974,-0.837062 -2.55401,-1.342927 -3.5882,-1.760029 z" id="path4061"/>
      <rect rx="0.046262607" style="fill:#cccccc;fill-opacity:1;stroke:none;stroke-width:1.92525;stroke-linecap:square;stroke-linejoin:round;stroke-miterlimit:4;stroke-dasharray:none;stroke-opacity:1" id="rect3958" width="8.7414093" height="7.0125322" x="133.67593" y="61.232826" ry="0.046146717"/>
      <path id="path3915" style="fill:url(#linearGradient3981);fill-opacity:1;stroke:none;stroke-width:0.192525px;stroke-linecap:butt;stroke-linejoin:miter;stroke-opacity:1" d="m 170.94413,18.616827 c -3.37286,-0.0105 -6.74503,0.466328 -10.00851,1.30527 -7.48019,1.922929 -14.9732,5.91833 -19.04803,12.715626 -2.93203,4.890969 -2.89027,11.074411 -0.63254,16.201463 l -0.01,0.0096 c 0.005,-2.65e-4 0.009,-7.94e-4 0.0139,-0.0013 0.009,0.02151 0.0181,0.0434 0.0277,0.06488 l 0.0781,-0.07371 c 0.70644,-0.05521 1.41241,-0.118499 2.11704,-0.193104 7.40662,-0.784166 15.24089,-2.814923 20.51368,-8.397487 5.4457,-5.76561 7.61722,-13.668809 8.99832,-21.276645 l 0.28413,-0.267964 c -0.77711,-0.05572 -1.55545,-0.08422 -2.33379,-0.08664 z"/>
      <rect ry="0.046146717" y="70.579475" x="126.72591" height="6.5722809" width="8.4260435" id="rect3958-3" style="fill:#cccccc;fill-opacity:1;stroke:none;stroke-width:1.92525;stroke-linecap:square;stroke-linejoin:round;stroke-miterlimit:4;stroke-dasharray:none;stroke-opacity:1" rx="0.046262607"/>
      <rect rx="0.046262607" style="fill:#cccccc;fill-opacity:1;stroke:none;stroke-width:1.92525;stroke-linecap:square;stroke-linejoin:round;stroke-miterlimit:4;stroke-dasharray:none;stroke-opacity:1" id="rect3958-3-5" width="8.4260435" height="5.3615723" x="126.73433" y="90.483543" ry="0.046146717"/>
    </g>
  </g>
</svg>